<svg width="1000" height="1000" viewBox="0 0 1000 1000" fill="none" xmlns="http://www.w3.org/2000/svg">
<rect width="1000" height="1000" fill="#E5E5E5"/>
<g id="Frame 1">
<g id="Untitled design 1" clip-path="url(#clip0_0_1)">
<g id="topleft">
<path id="Vector" d="M95.2344 333.333H333.333V0H0V333.333H95.2344ZM47.6198 47.6198H285.719V285.719H47.6198V47.6198Z" fill="black"/>
<path id="Vector_2" d="M190.479 238.099H238.099V95.2344H95.2344V238.099H190.479Z" fill="black"/>
</g>
<g id="bottomleft">
<path id="Vector_3" d="M142.854 761.901H95.2344V904.76H238.099V761.901H142.854Z" fill="black"/>
<path id="Vector_4" d="M238.099 666.667H0V1000H333.333V666.667H238.099ZM285.714 952.38H47.6198V714.281H285.719V952.38H285.714Z" fill="black"/>
</g>
<g id="midleft">
<path id="Vector_5" d="M47.6198 571.432H95.2344V428.568H142.854V380.953H0V476.188H47.6198V523.813H0V619.047H47.6198V571.432Z" fill="black"/>
<path id="Vector_6" d="M142.854 476.188V571.432H190.479V619.047H238.099V476.188H142.854Z" fill="black"/>
<path id="Vector_7" d="M333.333 428.568H428.568V476.187H476.187V428.568H571.432V380.953H619.047V190.479H571.432V333.333H523.812V380.953H476.187V333.333H428.568V285.714H380.953V380.953H190.479V428.568H238.099V476.187H285.714V428.568H333.333Z" fill="black"/>
</g>
<g id="topmid">
<path id="Vector_8" d="M476.188 238.099H523.813V190.479H476.188V238.099Z" fill="black"/>
<path id="Vector_9" d="M523.813 285.714H476.188V333.333H523.813V285.714Z" fill="black"/>
<path id="Vector_10" d="M619.047 142.854V95.2344H571.432V47.6198H619.047V0H523.813V47.6198H476.188V0H428.568V95.2344H380.953V142.854H428.568V190.479H476.188V95.2344H523.813V190.479H571.432V142.854H619.047Z" fill="black"/>
</g>
<g id="mid">
<path id="Vector_11" d="M285.714 476.188V523.813H333.333V476.188H285.714Z" fill="black"/>
<path id="Vector_12" d="M571.432 523.813H619.047V476.188H571.432V523.813Z" fill="black"/>
<path id="Vector_13" d="M619.047 571.432H571.432V619.047H619.047V571.432Z" fill="black"/>
<path id="Vector_14" d="M714.286 523.812H666.667V619.047H714.286V523.812Z" fill="black"/>
<path id="Vector_15" d="M857.146 619.047V571.432H761.901V619.047H857.146Z" fill="black"/>
<path id="Vector_16" d="M809.521 666.667V714.286H761.901V619.047H714.281V666.667H666.667V619.047H619.047V714.286H571.427V619.047H523.807V523.813H428.568V476.188H380.948V523.813H333.333V571.432H285.714V619.052H380.948V571.432H428.568V619.052H380.948V809.526H428.568V857.146H476.187V761.911H428.568V666.667H476.187V714.286H523.812V809.521H571.432V761.901H619.052V809.521H666.667V857.146H714.286V809.521H761.906V761.901H857.146V666.667H809.521ZM714.286 761.901H666.667V714.281H714.286V761.901Z" fill="black"/>
<path id="Vector_17" d="M904.766 761.901H857.146V857.146H952.38V809.521H904.766V761.901Z" fill="black"/>
<path id="Vector_18" d="M952.38 571.432H904.766V714.286H952.38V809.521H1000V619.047H952.38V571.432Z" fill="black"/>
</g>
<g id="topright">
<path id="Vector_19" d="M666.667 428.568V476.188H714.286V380.953H619.047V428.568H666.667Z" fill="black"/>
<path id="Vector_20" d="M809.521 95.2344H761.901V238.099H904.766V95.2344H809.521Z" fill="black"/>
<path id="Vector_21" d="M857.146 380.953V428.568H904.766V380.953H857.146Z" fill="black"/>
<path id="Vector_22" d="M904.766 428.568V476.188H761.901V523.813H1000V428.568H904.766Z" fill="black"/>
<path id="Vector_23" d="M952.38 0H666.667V333.333H1000V0H952.38ZM952.38 285.714H714.281V47.6198H952.38V285.714Z" fill="black"/>
</g>
<g id="bottomright">
<path id="Vector_24" d="M428.568 857.146H380.953V1000H476.188V904.76H428.568V857.146Z" fill="black"/>
<path id="Vector_25" d="M523.813 904.76V857.146H476.188V904.76H523.813Z" fill="black"/>
<path id="Vector_26" d="M571.432 904.76H619.047V857.146H571.432V904.76Z" fill="black"/>
<path id="Vector_27" d="M571.432 1000H619.047V952.38H571.432V1000Z" fill="black"/>
<path id="Vector_28" d="M666.667 1000H714.286V904.76H666.667V1000Z" fill="black"/>
<path id="Vector_29" d="M761.901 904.76H809.521V857.146H761.901V904.76Z" fill="black"/>
<path id="Vector_30" d="M761.901 1000H809.521V952.38H761.901V1000Z" fill="black"/>
<path id="Vector_31" d="M857.146 904.76V1000H1000V952.38H952.38V904.76H857.146Z" fill="black"/>
<path id="Vector_32" d="M1000 904.76V857.146H952.38V904.76H1000Z" fill="black"/>
</g>
</g>
</g>
<defs>
<clipPath id="clip0_0_1">
<rect width="1000" height="1000" fill="white"/>
</clipPath>
</defs>
</svg>
